# xmcd CD database file
#
# Track frame offsets:
#	150
#	16181
#	34769
#	53760
#	65992
#	82811
#	101033
#	118619
#	134154
#	147787
#	169624
#	189939
#
# Disc length: 2761 seconds
#
# Revision: 0
# Processed by: cddbd v1.5.2PL0 Copyright (c) Steve Scherf et al.
# Submitted via: CDex 1.70beta2
#
DISCID=a10ac70c
DTITLE=Akiko - Vida
DYEAR=2007
DGENRE=Jazz
TTITLE0=Brazil
TTITLE1=Batucada
TTITLE2=Breathing Life
TTITLE3=Meu Coracao
TTITLE4=Payapta Turdi
TTITLE5=Chega de Saudade
TTITLE6=A Song for You
TTITLE7=A Little Bruise (arto e eu)
TTITLE8=Roda
TTITLE9=Jardim Botanico
TTITLE10=Yin and Yan
TTITLE11=Brazil (Big Band Version)
EXTD=YEAR: 2007
EXTT0=
EXTT1=
EXTT2=
EXTT3=
EXTT4=
EXTT5=
EXTT6=
EXTT7=
EXTT8=
EXTT9=
EXTT10=
EXTT11=
PLAYORDER=
